<?xml version="1.0" encoding="UTF-8" standalone="no"?>
<svg
   xmlns:dc="http://purl.org/dc/elements/1.1/"
   xmlns:cc="http://creativecommons.org/ns#"
   xmlns:rdf="http://www.w3.org/1999/02/22-rdf-syntax-ns#"
   xmlns:svg="http://www.w3.org/2000/svg"
   xmlns="http://www.w3.org/2000/svg"
   version="1.1"
   width="500"
   height="500"
   viewBox="0 0 200 200">
  <defs>
    <filter
       id="filter_shadow"
       width="1.312"
       height="1.1386667"
       x="-0.156"
       y="-0.069333333"
       style="color-interpolation-filters:sRGB">
      <feGaussianBlur
         id="feGaussianBlur3183"
         stdDeviation="27.16224" />
    </filter>
  </defs>
  <g transform="matrix(0.19144224,0,0,0.19144224,13.850996,4.9729054)">
    <rect
       y="-25.976145"
       x="-72.350784"
       height="1044.7017"
       width="1044.7015"
       class="bg" />
    <path
       d="m 449.99998,78.494143 c 182.82277,0 195.88153,143.284347 195.88153,248.116617 0,235.05784 -195.88153,613.76214 -195.88153,613.76214 0,0 -195.88154,-378.7043 -195.88154,-613.76214 0,-104.47015 13.05877,-248.116617 195.88154,-248.116617 z"
       style="fill:#955d18;fill-opacity:0.13653137;filter:url(#filter_shadow)" />
    <g transform="translate(257.3645,92)">
      <g style="opacity:0.68000034">
        <path
           class="con"
           d="m 53.09,348.575 141.604,457.7 137.488,-453.16 z" />
      </g>
      <path
         class="con"
         d="m 181.456,760.868 20.704,19.071 -6.625,26.335 z" />
      <path
         class="con"
         d="m 174.555,742.705 54.659,-49.947 18.219,-63.57 -82.816,79.008 z" />
      <path
         class="con"
         d="M 146.602,650.075 280.702,521.12 302.093,453.918 135.907,615.566 Z" />
      <path
         class="con"
         d="m 117.687,556.538 202.901,-197.065 -55.487,-0.909 -159.836,156.2 z" />
      <path
         class="con"
         d="m 152.47,349.483 -73.707,79.916 9.11,32.692 111.803,-108.068 z" />
      <path
         class="con"
         d="M 126.797,583.782 231.974,681.86 220.38,720.91 146.673,650.076 Z" />
      <path
         class="con"
         d="M 73.794,414.869 259.304,591.955 248.537,629.189 92.014,473.897 Z" />
      <path
         class="con"
         d="M 289.118,495.693 277.523,532.926 82.904,347.667 h 57.144 z" />
      <path
         class="con"
         d="m 220.38,350.391 86.129,87.181 11.594,-36.326 -49.69,-52.672 z" />
    </g>
    <g transform="translate(262.31969,92)">
      <g>
        <path
           class="fla1"
           d="m 345.043,339.024 c 4.384,-12.961 6.741,-26.71 6.741,-40.959 0,-77.643 -69.72,-140.593 -155.749,-140.593 -86.023,0 -155.736,62.95 -155.736,140.593 0,14.249 2.354,27.998 6.737,40.959 -16.424,6.221 -27.959,20.873 -27.959,37.961 0,22.735 20.408,41.156 45.595,41.156 20.561,0 37.958,-12.297 43.622,-29.191 5.692,16.894 23.061,29.191 43.646,29.191 21.233,0 39.044,-13.131 44.095,-30.894 5.069,17.763 22.875,30.894 44.104,30.894 20.598,0 37.966,-12.297 43.654,-29.204 5.664,16.907 23.029,29.204 43.618,29.204 25.184,0 45.591,-18.421 45.591,-41.156 0,-17.088 -11.539,-31.729 -27.959,-37.961" />
        <path
           class="fla2"
           d="m 337.463,251.963 c 2.981,-13.156 3.873,-27.075 2.388,-41.44 C 331.701,132.216 256.113,70.102 171.001,71.799 85.873,73.495 23.488,138.355 31.615,216.656 c 1.5,14.371 5.279,28.192 10.966,41.174 -15.595,6.598 -25.477,21.598 -23.687,38.834 2.382,22.933 24.506,41.108 49.432,40.605 20.366,-0.397 36.273,-13.143 40.104,-30.296 7.406,16.927 25.882,28.987 46.237,28.579 21.026,-0.417 37.271,-14.011 40.413,-32.027 6.872,17.815 25.858,30.716 46.874,30.288 20.391,-0.399 36.278,-13.145 40.138,-30.303 7.376,16.932 25.848,28.994 46.215,28.589 24.913,-0.498 43.168,-19.478 40.797,-42.405 -1.79,-17.238 -14.734,-31.771 -31.641,-37.731" />
        <path
           class="fla3"
           d="m 331.28,181.185 c 4.924,-13.392 7.822,-27.504 8.383,-42.021 3.02,-79.102 -64.55,-140.241 -150.962,-136.529 -86.405,3.7 -158.884,70.841 -161.92,149.95 -0.545,14.513 1.286,28.432 5.18,41.44 -16.742,7.042 -28.907,22.467 -29.574,39.881 -0.882,23.165 18.896,41.057 44.201,39.964 20.659,-0.885 38.593,-14.162 44.951,-31.621 5.061,16.97 22.022,28.747 42.691,27.865 21.345,-0.915 39.739,-15.064 45.51,-33.378 4.389,17.876 21.762,30.489 43.105,29.576 20.671,-0.888 38.6,-14.169 44.961,-31.634 5.043,16.985 22.004,28.762 42.684,27.874 25.293,-1.086 46.505,-20.733 47.4,-43.895 0.663,-17.413 -10.348,-31.83 -26.61,-37.472" />
      </g>
    </g>
  </g>
  <text
     text-anchor="middle"
     x="50%"
     y="65%"
     class="tfla">Vanilla Brownie Apple</text>
  <text
     text-anchor="middle"
     x="50%"
     y="75%"
     class="tice">Ice Cream</text>
  <style>
    .bg { fill: #ffeea8; }
    .con { fill: #f8ad48; }
    .fla1 { fill: #66eb81; }
    .fla2 { fill: #df8858; }
    .fla3 { fill: #fff177; }
    .tfla { font: bold 12px Purisa; }
    .tice { font: 11px Purisa; }
  </style>
</svg>