<?xml version="1.0" encoding="UTF-8" standalone="no"?>
<svg
   xmlns:dc="http://purl.org/dc/elements/1.1/"
   xmlns:cc="http://creativecommons.org/ns#"
   xmlns:rdf="http://www.w3.org/1999/02/22-rdf-syntax-ns#"
   xmlns:svg="http://www.w3.org/2000/svg"
   xmlns="http://www.w3.org/2000/svg"
   viewBox="0 0 200 200"
   height="500"
   width="500"
   version="1.1">
  <defs>
    <filter
       style="color-interpolation-filters:sRGB"
       y="-0.069333333"
       x="-0.156"
       height="1.1386667"
       width="1.312"
       id="filter_shadow">
      <feGaussianBlur
         stdDeviation="27.16224" />
    </filter>
  </defs>
  <path
     transform="matrix(0.19144224,0,0,0.19144224,13.850996,4.9729054)"
     d="m 449.99998,78.494143 c 182.82277,0 195.88153,143.284347 195.88153,248.116617 0,235.05784 -195.88153,613.76214 -195.88153,613.76214 0,0 -195.88154,-378.7043 -195.88154,-613.76214 0,-104.47015 13.05877,-248.116617 195.88154,-248.116617 z"
     style="fill:#955d18;fill-opacity:0.1365314;filter:url(#filter_shadow)" />
  <g
     transform="matrix(0.19144224,0,0,0.19144224,63.121432,22.585591)">
    <path
       d="m 53.09,348.575 141.604,457.7 137.488,-453.16 z"
       style="fill:#f4c280" />
    <path
       d="m 181.456,760.868 20.704,19.071 -6.625,26.335 z"
       style="fill:#f8ad48" />
    <path
       d="m 174.555,742.705 54.659,-49.947 18.219,-63.57 -82.816,79.008 z"
       style="fill:#f8ad48" />
    <path
       d="M 146.602,650.075 280.702,521.12 302.093,453.918 135.907,615.566 Z"
       style="fill:#f8ad48" />
    <path
       d="m 117.687,556.538 202.901,-197.065 -55.487,-0.909 -159.836,156.2 z"
       style="fill:#f8ad48" />
    <path
       d="m 152.47,349.483 -73.707,79.916 9.11,32.692 111.803,-108.068 z"
       style="fill:#f8ad48" />
    <path
       d="M 126.797,583.782 231.974,681.86 220.38,720.91 146.673,650.076 Z"
       style="fill:#f8ad48" />
    <path
       d="M 73.794,414.869 259.304,591.955 248.537,629.189 92.014,473.897 Z"
       style="fill:#f8ad48" />
    <path
       d="M 289.118,495.693 277.523,532.926 82.904,347.667 h 57.144 z"
       style="fill:#f8ad48" />
    <path
       d="m 220.38,350.391 86.129,87.181 11.594,-36.326 -49.69,-52.672 z"
       style="fill:#f8ad48" />
  </g>
  <g
     transform="matrix(0.19144224,0,0,0.19144224,64.070065,22.585591)">
    <g>
      <path
         d="m 345.043,339.024 c 4.384,-12.961 1.93745,-29.38964 1.40184,-43.62858 C 343.77526,224.42637 282.064,157.472 196.035,157.472 c -86.023,0 -155.736,62.95 -155.736,140.593 0,14.249 2.354,27.998 6.737,40.959 -16.424,6.221 -27.959,20.873 -27.959,37.961 0,22.735 20.408,41.156 45.595,41.156 20.561,0 37.958,-12.297 43.622,-29.191 5.692,16.894 23.061,29.191 43.646,29.191 21.233,0 39.044,-13.131 44.095,-30.894 5.069,17.763 22.875,30.894 44.104,30.894 20.598,0 37.966,-12.297 43.654,-29.204 5.664,16.907 23.029,29.204 43.618,29.204 25.184,0 45.591,-18.421 45.591,-41.156 0,-17.088 -11.539,-31.729 -27.959,-37.961"
         style="fill:#66eb81" />
      <path
         d="m 337.463,256.14181 c 2.981,-13.156 3.873,-27.075 2.388,-41.44 -8.15,-78.307 -83.738,-140.421004 -168.85,-138.724004 -85.128,1.696 -147.513,66.556004 -139.386,144.857004 1.5,14.371 5.279,28.192 10.966,41.174 -15.595,6.598 -25.477,21.598 -23.687,38.834 2.382,22.933 24.506,41.108 49.432,40.605 20.366,-0.397 36.273,-13.143 40.104,-30.296 7.406,16.927 25.882,28.987 46.237,28.579 21.026,-0.417 37.271,-14.011 40.413,-32.027 6.872,17.815 25.858,30.716 46.874,30.288 20.391,-0.399 36.278,-13.145 40.138,-30.303 7.376,16.932 25.848,28.994 46.215,28.589 24.913,-0.498 43.168,-19.478 40.797,-42.405 -1.79,-17.238 -14.734,-31.771 -31.641,-37.731"
         style="fill:#ffea76" />
      <path
         d="m 335.45881,181.185 c 4.924,-13.392 7.822,-27.504 8.383,-42.021 3.02,-79.102 -64.55,-140.241 -150.962,-136.529 -86.405,3.7 -158.884004,70.841 -161.920004,149.95 -0.545,14.513 1.286,28.432 5.18,41.44 -16.742,7.042 -28.9070001,22.467 -29.5740001,39.881 -0.8819998,23.165 18.8960001,41.057 44.2010001,39.964 20.659,-0.885 38.593,-14.162 44.951,-31.621 5.061004,16.97 22.022004,28.747 42.691004,27.865 21.345,-0.915 39.739,-15.064 45.51,-33.378 4.389,17.876 21.762,30.489 43.105,29.576 20.671,-0.888 38.6,-14.169 44.961,-31.634 5.043,16.985 22.004,28.762 42.684,27.874 25.293,-1.086 46.505,-20.733 47.4,-43.895 0.663,-17.413 -10.348,-31.83 -26.61,-37.472"
         style="fill:#ff847d" />
      <path
         d="m 157.86653,28.412736 c 24.62731,-5.205001 26.13059,9.882516 7.34135,24.026196 C 130.89566,82.042411 108.79116,110.29882 95.42181,163.76539 86.273763,189.74138 60.13663,190.23373 60.426964,157.21984 74.525574,83.177413 111.71947,49.400093 157.86653,28.412736 Z"
         style="fill:#ff9790" />
      <path
         d="m 205.43051,16.670742 c 20.0726,-0.933881 18.46219,18.24827 1.40088,20.779313 -17.60986,-0.366028 -26.16649,-18.646901 -1.40088,-20.779313 z"
         style="fill:#ff9790" />
      <path
         d="m 112.89967,362.16413 c 20.0726,-0.93388 18.46219,18.24828 1.40088,20.77932 -17.609862,-0.36603 -26.166492,-18.6469 -1.40088,-20.77932 z"
         style="fill:#ffea76;fill-opacity:0.54981546" />
      <path
         d="m 231.63024,348.97232 c 20.0726,-0.93388 18.46219,18.24828 1.40088,20.77932 -17.60986,-0.36603 -26.16649,-18.6469 -1.40088,-20.77932 z"
         style="fill:#ffea76;fill-opacity:0.62730629" />
      <path
         d="m 269.04362,274.31902 c 20.0726,-0.93388 18.46219,18.24827 1.40088,20.77931 -17.60986,-0.36602 -26.16649,-18.64689 -1.40088,-20.77931 z"
         style="fill:#ff9790;fill-opacity:0.45756456" />
      <path
         d="m 151.58223,295.00825 c 20.0726,-0.93388 18.46219,18.24827 1.40088,20.77931 -17.60986,-0.36602 -26.16649,-18.64689 -1.40088,-20.77931 z"
         style="fill:#ff9790;fill-opacity:0.27306274" />
    </g>
  </g>
</svg>
